<svg width="1440" height="1024" viewBox="0 0 1440 1024" fill="none" xmlns="http://www.w3.org/2000/svg">
<g clip-path="url(#clip0)">
<rect width="1440" height="1024" fill="#613DDF"/>
<path d="M956.654 94.3865C947.283 87.0944 945.597 73.5861 952.89 64.2149V64.2149C960.182 54.8436 973.69 53.1582 983.061 60.4503L1283.75 294.429C1293.12 301.721 1294.81 315.229 1287.52 324.6V324.6C1280.22 333.972 1266.72 335.657 1257.35 328.365L956.654 94.3865Z" fill="black" fill-opacity="0.33"/>
<path d="M605.923 76.1531C596.551 68.861 594.866 55.3527 602.158 45.9815V45.9815C609.45 36.6102 622.959 34.9248 632.33 42.2169L933.021 276.195C942.392 283.488 944.077 296.996 936.785 306.367V306.367C929.493 315.738 915.985 317.424 906.614 310.132L605.923 76.1531Z" fill="black" fill-opacity="0.33"/>
<path d="M1122.86 478.4C1113.49 471.108 1111.8 457.599 1119.09 448.228V448.228C1126.39 438.857 1139.89 437.171 1149.27 444.463L1449.96 678.442C1459.33 685.734 1461.01 699.242 1453.72 708.614V708.614C1446.43 717.985 1432.92 719.67 1423.55 712.378L1122.86 478.4Z" fill="black" fill-opacity="0.33"/>
<path d="M-317.032 478.4C-326.403 471.108 -328.089 457.599 -320.796 448.228V448.228C-313.504 438.857 -299.996 437.171 -290.625 444.464L10.0661 678.442C19.4373 685.734 21.1228 699.243 13.8307 708.614V708.614C6.53859 717.985 -6.96972 719.67 -16.341 712.378L-317.032 478.4Z" fill="black" fill-opacity="0.33"/>
<path d="M192.843 9.40431C183.472 2.11221 181.786 -11.3961 189.079 -20.7673V-20.7673C196.371 -30.1386 209.879 -31.824 219.25 -24.5319L519.941 209.447C529.312 216.739 530.998 230.247 523.706 239.618V239.618C516.414 248.99 502.905 250.675 493.534 243.383L192.843 9.40431Z" fill="black" fill-opacity="0.33"/>
<path d="M192.843 1033.2C183.472 1025.91 181.786 1012.4 189.079 1003.03V1003.03C196.371 993.661 209.879 991.975 219.25 999.267L519.941 1233.25C529.312 1240.54 530.998 1254.05 523.706 1263.42V1263.42C516.414 1272.79 502.905 1274.47 493.534 1267.18L192.843 1033.2Z" fill="black" fill-opacity="0.33"/>
<path d="M709.779 411.651C700.408 404.359 698.722 390.85 706.014 381.479V381.479C713.306 372.108 726.815 370.423 736.186 377.715L1036.88 611.693C1046.25 618.985 1047.93 632.494 1040.64 641.865V641.865C1033.35 651.236 1019.84 652.922 1010.47 645.629L709.779 411.651Z" fill="black" fill-opacity="0.33"/>
<path d="M1226.71 813.897C1217.34 806.605 1215.66 793.097 1222.95 783.726V783.726C1230.24 774.355 1243.75 772.669 1253.12 779.961L1553.81 1013.94C1563.18 1021.23 1564.87 1034.74 1557.58 1044.11V1044.11C1550.29 1053.48 1536.78 1055.17 1527.41 1047.88L1226.71 813.897Z" fill="black" fill-opacity="0.33"/>
<path d="M-213.032 813.897C-222.403 806.605 -224.089 793.097 -216.796 783.726V783.726C-209.504 774.354 -195.996 772.669 -186.625 779.961L114.066 1013.94C123.437 1021.23 125.123 1034.74 117.831 1044.11V1044.11C110.539 1053.48 97.0303 1055.17 87.659 1047.88L-213.032 813.897Z" fill="black" fill-opacity="0.33"/>
<path d="M-213.032 -210.796C-222.403 -218.089 -224.089 -231.597 -216.796 -240.968V-240.968C-209.504 -250.339 -195.996 -252.025 -186.625 -244.733L114.066 -10.7542C123.437 -3.46206 125.123 10.0462 117.831 19.4175V19.4175C110.539 28.7887 97.0303 30.4742 87.659 23.1821L-213.032 -210.796Z" fill="black" fill-opacity="0.33"/>
<path d="M359.047 393.417C349.676 386.125 347.991 372.617 355.283 363.246V363.246C362.575 353.875 376.083 352.189 385.454 359.481L686.145 593.46C695.517 600.752 697.202 614.26 689.91 623.631V623.631C682.618 633.003 669.11 634.688 659.738 627.396L359.047 393.417Z" fill="black" fill-opacity="0.33"/>
<path d="M875.983 795.664C866.612 788.372 864.927 774.864 872.219 765.492V765.492C879.511 756.121 893.019 754.436 902.39 761.728L1203.08 995.706C1212.45 1003 1214.14 1016.51 1206.85 1025.88V1025.88C1199.55 1035.25 1186.05 1036.93 1176.67 1029.64L875.983 795.664Z" fill="black" fill-opacity="0.33"/>
<path d="M875.968 -228.796C866.597 -236.089 864.911 -249.597 872.204 -258.968V-258.968C879.496 -268.339 893.004 -270.025 902.375 -262.733L1203.07 -28.7542C1212.44 -21.4621 1214.12 -7.95376 1206.83 1.41747V1.41747C1199.54 10.7887 1186.03 12.4742 1176.66 5.18208L875.968 -228.796Z" fill="black" fill-opacity="0.33"/>
<path d="M-54.0319 326.669C-63.4031 319.377 -65.0886 305.868 -57.7965 296.497V296.497C-50.5044 287.126 -36.9961 285.44 -27.6248 292.732L273.066 526.711C282.437 534.003 284.123 547.511 276.831 556.883V556.883C269.539 566.254 256.03 567.939 246.659 560.647L-54.0319 326.669Z" fill="black" fill-opacity="0.33"/>
<path d="M1385.97 326.669C1376.6 319.377 1374.91 305.868 1382.2 296.497V296.497C1389.5 287.126 1403 285.441 1412.38 292.733L1713.07 526.711C1722.44 534.003 1724.12 547.512 1716.83 556.883V556.883C1709.54 566.254 1696.03 567.94 1686.66 560.647L1385.97 326.669Z" fill="black" fill-opacity="0.33"/>
<path d="M462.904 728.915C453.533 721.623 451.847 708.115 459.139 698.744V698.744C466.431 689.372 479.94 687.687 489.311 694.979L790.002 928.958C799.373 936.25 801.059 949.758 793.766 959.129V959.129C786.474 968.5 772.966 970.186 763.595 962.894L462.904 728.915Z" fill="black" fill-opacity="0.33"/>
<path d="M112.172 710.682C102.801 703.39 101.116 689.882 108.408 680.51V680.51C115.7 671.139 129.208 669.454 138.579 676.746L439.27 910.724C448.642 918.016 450.327 931.525 443.035 940.896V940.896C435.743 950.267 422.235 951.953 412.863 944.66L112.172 710.682Z" fill="black" fill-opacity="0.33"/>
</g>
<g clip-path="url(#clip1)">
<rect width="1440" height="1024" fill="#3A383F" fill-opacity="0.36"/>
</g>
<defs>
<clipPath id="clip0">
<rect width="1440" height="1024" fill="white"/>
</clipPath>
<clipPath id="clip1">
<rect width="1440" height="1024" fill="white"/>
</clipPath>
</defs>
</svg>
